<?xml version="1.0" standalone="no"?>
<!DOCTYPE svg PUBLIC "-//W3C//DTD SVG 20010904//EN"
 "http://www.w3.org/TR/2001/REC-SVG-20010904/DTD/svg10.dtd">
<svg version="1.0" xmlns="http://www.w3.org/2000/svg"
 width="180.000000pt" height="180.000000pt" viewBox="0 0 180.000000 180.000000"
 preserveAspectRatio="xMidYMid meet">
<metadata>
Created by potrace 1.10, written by Peter Selinger 2001-2011
</metadata>
<g transform="translate(0.000000,180.000000) scale(0.050000,-0.050000)"
fill="#000000" stroke="none">
<path d="M840 1870 l0 -1450 170 0 170 0 0 622 0 622 215 -8 c366 -14 419 -63
835 -763 l280 -472 203 0 203 -1 -328 525 c-335 537 -482 731 -588 778 -82 36
-77 44 49 84 557 176 718 924 281 1309 -189 166 -379 204 -1025 204 l-465 0 0
-1450z m941 1122 c578 -38 593 -887 18 -1010 -55 -12 -218 -22 -360 -22 l-259
0 0 528 0 528 245 -8 c135 -5 295 -12 356 -16z"/>
</g>
</svg>
